HIERARCHY
ROOT Hips
{
	OFFSET 0.000000 0.000000 0.000000
	CHANNELS 6 Xposition Yposition Zposition Xrotation Yrotation Zrotation
	JOINT LeftUpLeg_virtual
	{
		OFFSET 0.000000 0.000000 0.000000
		CHANNELS 3 Xrotation Yrotation Zrotation
		JOINT LeftUpLeg
		{
			OFFSET 15.427100 -6.655098 0.678600
			CHANNELS 3 Xrotation Yrotation Zrotation
			JOINT LeftLeg
			{
				OFFSET 4.081073 -39.591068 13.024000
				CHANNELS 3 Xrotation Yrotation Zrotation
				JOINT LeftFoot
				{
					OFFSET -4.081074 -37.707932 -15.979700
					CHANNELS 3 Xrotation Yrotation Zrotation
					JOINT LeftToeBase
					{
						OFFSET 5.346399 -15.068900 20.645000
						CHANNELS 3 Xrotation Yrotation Zrotation
						JOINT LeftToe_End
						{
							OFFSET 2.754700 0.931300 11.300900
							CHANNELS 3 Xrotation Yrotation Zrotation
							End Site
							{
								OFFSET 0 0 0
							}
						}
					}
				}
			}
		}
	}
	JOINT RightUpLeg_virtual
	{
		OFFSET 0.000000 0.000000 0.000000
		CHANNELS 3 Xrotation Yrotation Zrotation
		JOINT RightUpLeg
		{
			OFFSET -15.569500 -6.655098 0.678600
			CHANNELS 3 Xrotation Yrotation Zrotation
			JOINT RightLeg
			{
				OFFSET -4.081825 -39.591045 13.023800
				CHANNELS 3 Xrotation Yrotation Zrotation
				JOINT RightFoot
				{
					OFFSET 4.081824 -37.707954 -15.979600
					CHANNELS 3 Xrotation Yrotation Zrotation
					JOINT RightToeBase
					{
						OFFSET -5.346400 -15.068900 20.645000
						CHANNELS 3 Xrotation Yrotation Zrotation
						JOINT RightToe_End
						{
							OFFSET -2.754700 0.931300 11.300900
							CHANNELS 3 Xrotation Yrotation Zrotation
							End Site
							{
								OFFSET 0 0 0
							}
						}
					}
				}
			}
		}
	}
	JOINT Spine_virtual
	{
		OFFSET 0.000000 0.000000 0.000000
		CHANNELS 3 Xrotation Yrotation Zrotation
		JOINT Spine
		{
			OFFSET -0.279200 12.230698 -2.892100
			CHANNELS 3 Xrotation Yrotation Zrotation
			JOINT Spine1
			{
				OFFSET -0.232667 10.192268 -1.242267
				CHANNELS 3 Xrotation Yrotation Zrotation
				JOINT Spine1_split
				{
					OFFSET -0.232667 10.192268 -1.242267
					CHANNELS 3 Xrotation Yrotation Zrotation
					JOINT Spine2
					{
						OFFSET -0.232667 10.192268 -1.242267
						CHANNELS 3 Xrotation Yrotation Zrotation
						JOINT Neck_virtual
						{
							OFFSET 0.000000 0.000000 0.000000
							CHANNELS 3 Xrotation Yrotation Zrotation
							JOINT Neck
							{
								OFFSET -0.418800 17.814194 8.416900
								CHANNELS 3 Xrotation Yrotation Zrotation
								JOINT Head
								{
									OFFSET 0.000000 7.031097 3.806800
									CHANNELS 3 Xrotation Yrotation Zrotation
									JOINT HeadTop_End
									{
										OFFSET 0.000000 24.646606 12.978600
										CHANNELS 3 Xrotation Yrotation Zrotation
										End Site
										{
											OFFSET 0 0 0
										}
									}
								}
							}
						}
						JOINT LeftShoulder_virtual
						{
							OFFSET 0.000000 0.000000 0.000000
							CHANNELS 3 Xrotation Yrotation Zrotation
							JOINT LeftShoulder
							{
								OFFSET 8.476499 7.247704 -3.868750
								CHANNELS 3 Xrotation Yrotation Zrotation
								JOINT LeftShoulder_split
								{
									OFFSET 8.476499 7.247704 -3.868750
									CHANNELS 3 Xrotation Yrotation Zrotation
									JOINT LeftArm
									{
										OFFSET 9.308998 -2.777710 0.208600
										CHANNELS 3 Xrotation Yrotation Zrotation
										JOINT LeftForeArm
										{
											OFFSET 29.972298 0.000000 0.000000
											CHANNELS 3 Xrotation Yrotation Zrotation
											JOINT LeftHand
											{
												OFFSET 26.026505 0.000000 0.000000
												CHANNELS 3 Xrotation Yrotation Zrotation
												End Site
												{
													OFFSET 0 0 0
												}
											}
										}
									}
								}
							}
						}
						JOINT RightShoulder_virtual
						{
							OFFSET 0.000000 0.000000 0.000000
							CHANNELS 3 Xrotation Yrotation Zrotation
							JOINT RightShoulder
							{
								OFFSET -7.570500 7.247704 -3.868750
								CHANNELS 3 Xrotation Yrotation Zrotation
								JOINT RightShoulder_split
								{
									OFFSET -7.570500 7.247704 -3.868750
									CHANNELS 3 Xrotation Yrotation Zrotation
									JOINT RightArm
									{
										OFFSET -9.308998 -2.777710 0.208500
										CHANNELS 3 Xrotation Yrotation Zrotation
										JOINT RightForeArm
										{
											OFFSET -29.972300 0.000000 0.000000
											CHANNELS 3 Xrotation Yrotation Zrotation
											JOINT RightHand
											{
												OFFSET -26.026505 0.000000 0.000000
												CHANNELS 3 Xrotation Yrotation Zrotation
												End Site
												{
													OFFSET 0 0 0
												}
											}
										}
									}
								}
							}
						}
					}
				}
			}
		}
	}
}
MOTION
Frames: 4
Frame Time: 0.03333333
7.295870 86.369209 -15.462830 0.000000 0.000000 0.000000 11.322668 9.054972 0.692882 -0.076455 15.542835 8.300300 35.154782 -3.159194 2.443951 -9.829705 4.605927 -12.279812 -37.092278 -0.000008 -0.000005 0.000000 0.000000 0.000000 11.322668 9.054972 0.692882 -43.122071 -5.378501 -9.249053 40.647210 -2.013923 3.517541 -6.072279 2.338148 -1.022927 -2.462446 -0.001137 0.346628 0.000000 0.000000 0.000000 11.322668 9.054972 0.692882 4.613498 -2.057466 -1.311885 0.605667 -2.990264 3.348217 0.000000 0.000000 0.000000 0.000000 0.000000 0.000000 0.632967 -3.010484 3.359031 -3.128720 0.442728 3.393672 -11.101221 2.725892 2.316669 0.000000 0.000000 0.000000 0.632967 -3.010484 3.359031 0.028837 0.485801 0.321204 0.000000 0.000000 0.000000 -37.094641 -12.101453 -49.437193 179.999950 -66.162615 179.999964 0.000000 0.000000 0.000000 0.632967 -3.010484 3.359031 -0.713611 -10.227974 7.452257 0.000000 0.000000 0.000000 -37.185281 7.525138 49.482262 179.999964 57.602715 -179.999964 0.000000 0.000000 0.000000 
7.562928 86.021729 -19.193092 0.000000 0.000000 0.000000 14.016540 9.641516 -1.660035 -16.162232 13.701558 12.200226 48.195498 -4.291810 -0.030766 6.368224 -0.944133 -3.966825 -46.390611 3.816744 -6.603355 0.000000 0.000000 0.000000 14.016540 9.641516 -1.660035 -45.736876 -5.398947 -6.892959 45.475017 -2.608265 2.924973 -4.517113 1.881152 -0.679895 -8.579522 -0.021999 0.452082 0.000000 0.000000 0.000000 14.016540 9.641516 -1.660035 3.839675 -1.265472 1.190549 3.030185 -2.333152 2.316412 0.000000 0.000000 0.000000 0.000000 0.000000 0.000000 3.025685 -2.337050 2.305680 -3.373866 0.744375 1.970034 -20.406066 -0.736912 4.010720 0.000000 0.000000 0.000000 3.025685 -2.337050 2.305680 0.226640 -3.126610 5.972564 0.000000 0.000000 0.000000 -55.645517 -11.976971 -43.754516 -179.999909 -69.485263 -179.999923 0.000000 0.000000 0.000000 3.025685 -2.337050 2.305680 -1.787735 -12.486583 1.915336 0.000000 0.000000 0.000000 -57.494135 10.708995 49.479936 179.999991 64.133489 -179.999978 0.000000 0.000000 0.000000 
7.872461 84.039558 -22.543442 0.000000 0.000000 0.000000 15.071584 8.972505 -3.182714 -29.674501 10.593999 15.677285 66.935430 -3.477514 -1.081131 10.039804 -2.599845 4.809517 -8.256978 2.274837 -10.972462 0.000000 0.000000 0.000000 15.071584 8.972505 -3.182714 -45.046286 -5.162687 -4.474151 53.290621 -3.574127 2.205016 -8.547808 0.728362 -0.915950 -16.446926 -0.000001 -0.000001 0.000000 0.000000 0.000000 15.071584 8.972505 -3.182714 4.270655 -0.739150 2.955663 5.525774 -2.007906 1.460071 0.000000 0.000000 0.000000 0.000000 0.000000 0.000000 5.509996 -2.001090 1.443114 -3.821976 1.179406 0.529720 -28.309546 -3.166417 6.680832 0.000000 0.000000 0.000000 5.509996 -2.001090 1.443114 0.256382 -4.260465 17.532851 0.000000 0.000000 0.000000 -70.525077 -4.093741 -37.545092 179.999937 -75.168622 179.999937 0.000000 0.000000 0.000000 5.509996 -2.001090 1.443114 -4.311108 -16.380943 -8.167938 0.000000 0.000000 0.000000 -75.846662 5.206701 53.753514 -179.999691 75.375645 179.999691 0.000000 0.000000 0.000000 
7.950150 83.350182 -24.874840 0.000000 0.000000 0.000000 12.532305 8.962233 -2.357741 -36.172306 7.549225 17.651082 83.072428 0.943001 -0.088970 7.015141 -1.260555 8.996912 4.144436 -0.000003 -0.000001 0.000000 0.000000 0.000000 12.532305 8.962233 -2.357741 -39.465854 -5.427584 -4.152746 53.713492 -3.964080 1.344552 -15.457854 0.494371 -1.743607 -17.469052 -0.000001 0.000000 0.000000 0.000000 0.000000 12.532305 8.962233 -2.357741 11.239314 -0.905862 2.214541 4.641892 -2.434681 1.215398 0.000000 0.000000 0.000000 0.000000 0.000000 0.000000 4.643789 -2.376272 1.240035 -4.441263 1.638403 -0.538824 -29.274389 -4.578419 11.198303 0.000000 0.000000 0.000000 4.643789 -2.376272 1.240035 -0.549386 -2.146080 27.836928 0.000000 0.000000 0.000000 -72.667120 1.178757 -29.946678 -179.999663 -82.576058 -179.999650 0.000000 0.000000 0.000000 4.643789 -2.376272 1.240035 -8.667455 -18.781803 -25.118362 0.000000 0.000000 0.000000 -79.985784 -4.358376 54.700516 -179.999240 84.691819 179.999308 0.000000 0.000000 0.000000 
